<svg xmlns="http://www.w3.org/2000/svg" xmlns:xlink="http://www.w3.org/1999/xlink" width="500" zoomAndPan="magnify" viewBox="0 0 375 374.999991" height="500" preserveAspectRatio="xMidYMid meet" version="1.2"><defs><clipPath id="e2840dbc3a"><path d="M 132.375 167 L 242.625 167 L 242.625 262.5 L 132.375 262.5 Z M 132.375 167 "/></clipPath><clipPath id="1ae8409703"><path d="M 203 112.5 L 235 112.5 L 235 168 L 203 168 Z M 203 112.5 "/></clipPath></defs><g id="0b1501df67"><g clip-rule="nonzero" clip-path="url(#e2840dbc3a)"><path style=" stroke:none;fill-rule:nonzero;fill:#14130f;fill-opacity:1;" d="M 226.851562 235.222656 L 179.609375 235.222656 L 187.484375 221.59375 L 195.359375 207.949219 L 203.234375 194.308594 L 195.359375 180.679688 L 187.484375 167.042969 L 179.609375 180.679688 L 171.742188 194.320312 L 163.867188 207.949219 L 155.992188 221.585938 L 148.125 235.222656 L 140.25 248.863281 L 132.375 262.5 L 226.851562 262.5 L 234.726562 248.863281 L 242.601562 235.222656 Z M 226.851562 235.222656 "/></g><g clip-rule="nonzero" clip-path="url(#1ae8409703)"><path style=" stroke:none;fill-rule:nonzero;fill:#e7a827;fill-opacity:1;" d="M 218.976562 167.042969 L 226.851562 153.40625 L 234.726562 139.765625 L 218.976562 112.5 L 203.234375 139.765625 L 211.101562 153.40625 Z M 218.976562 167.042969 "/></g><g style="fill:#000000;fill-opacity:1;"><g transform="translate(182.972659, 193.124987)"><path style="stroke:none" d="M 3.078125 -11.421875 L 3.078125 -1.109375 L 8.578125 -1.109375 L 8.578125 0 L 1.734375 0 L 1.734375 -11.421875 Z M 3.078125 -11.421875 "/></g></g></g></svg>